# MagicaVoxel @ Ephtracy

# group
g kayla-brandon

# material
mtllib kayla-brandon.mtl
usemtl palette

# normals
vn -1 0 0
vn 1 0 0
vn 0 0 1
vn 0 0 -1
vn 0 -1 0
vn 0 1 0

# texcoords
vt 0.0644531 0.5
vt 0.248047 0.5
vt 0.310547 0.5
vt 0.341797 0.5
vt 0.396484 0.5
vt 0.435547 0.5
vt 0.525391 0.5
vt 0.654297 0.5
vt 0.958984 0.5
vt 0.994141 0.5

# verts
v -9.5 4 2
v -9.5 4 -2
v -9.5 11 2
v -9.5 11 -2
v -8.5 0 5
v -8.5 0 -3
v -8.5 2 5
v -8.5 2 3
v -8.5 2 -3
v -8.5 4 2
v -8.5 4 -2
v -8.5 6 3
v -8.5 6 2
v -8.5 6 -2
v -8.5 6 -3
v -8.5 11 3
v -8.5 11 2
v -8.5 11 -2
v -8.5 11 -3
v -8.5 18 4
v -8.5 18 3
v -8.5 18 -3
v -8.5 20 4
v -8.5 20 -3
v -7.5 6 4
v -7.5 6 3
v -7.5 11 4
v -7.5 11 3
v -5.5 16 3
v -5.5 16 2
v -5.5 17 3
v -5.5 17 2
v -3.5 0 5
v -3.5 0 -2
v -3.5 1 -0
v -3.5 1 -2
v -3.5 2 5
v -3.5 2 3
v -3.5 2 -0
v -2.5 6 4
v -2.5 6 3
v -2.5 11 4
v -2.5 11 3
v -2.5 13 3
v -2.5 13 2
v -2.5 14 3
v -2.5 14 2
v -2.5 16 3
v -2.5 16 2
v -2.5 17 3
v -2.5 17 2
v -1.5 14 3
v -1.5 14 2
v -1.5 15 3
v -1.5 15 2
v 2.5 4 -0
v 2.5 4 -1
v 2.5 9 -0
v 2.5 9 -1
v 2.5 9 -3
v 2.5 10 1
v 2.5 10 -0
v 2.5 19 1
v 2.5 19 -3
v 3.5 0 5
v 3.5 0 4
v 3.5 0 2
v 3.5 0 1
v 3.5 0 -3
v 3.5 1 5
v 3.5 1 4
v 3.5 1 2
v 3.5 1 1
v 3.5 1 -3
v 3.5 4 -0
v 3.5 4 -1
v 3.5 9 -0
v 3.5 9 -1
v 3.5 9 -3
v 3.5 10 1
v 3.5 10 -0
v 6.5 15 -0
v 6.5 15 -1
v 6.5 16 -0
v 6.5 16 -1
v 8.5 0 5
v 8.5 0 4
v 8.5 0 2
v 8.5 0 1
v 8.5 1 5
v 8.5 1 4
v 8.5 1 2
v 8.5 1 1
v 9.5 12 -0
v 9.5 12 -1
v 9.5 13 -0
v 9.5 13 -1
v 9.5 15 -0
v 9.5 15 -1
v 9.5 16 -0
v 9.5 16 -1
v 10.5 13 -0
v 10.5 13 -1
v 10.5 14 -0
v 10.5 14 -1
v 11.5 11 1
v 11.5 11 -0
v 11.5 17 1
v 11.5 17 -0
v -7.5 14 3
v -7.5 14 2
v -7.5 15 3
v -7.5 15 2
v -6.5 6 4
v -6.5 6 3
v -6.5 11 4
v -6.5 11 3
v -6.5 13 3
v -6.5 13 2
v -6.5 14 3
v -6.5 14 2
v -6.5 16 3
v -6.5 16 2
v -6.5 17 3
v -6.5 17 2
v -5.5 0 5
v -5.5 0 -2
v -5.5 1 -0
v -5.5 1 -2
v -5.5 2 5
v -5.5 2 3
v -5.5 2 -0
v -3.5 16 3
v -3.5 16 2
v -3.5 17 3
v -3.5 17 2
v -1.5 6 4
v -1.5 6 3
v -1.5 11 4
v -1.5 11 3
v -0.5 0 5
v -0.5 0 -3
v -0.5 2 5
v -0.5 2 3
v -0.5 2 -3
v -0.5 4 2
v -0.5 4 -2
v -0.5 6 3
v -0.5 6 2
v -0.5 6 -2
v -0.5 6 -3
v -0.5 11 3
v -0.5 11 2
v -0.5 11 -2
v -0.5 11 -3
v -0.5 18 4
v -0.5 18 3
v -0.5 18 -3
v -0.5 20 4
v -0.5 20 -3
v 0.5 4 2
v 0.5 4 -2
v 0.5 11 2
v 0.5 11 -2
v 3.5 11 1
v 3.5 11 -0
v 3.5 17 1
v 3.5 17 -0
v 4.5 13 -0
v 4.5 13 -1
v 4.5 14 -0
v 4.5 14 -1
v 5.5 12 -0
v 5.5 12 -1
v 5.5 13 -0
v 5.5 13 -1
v 5.5 15 -0
v 5.5 15 -1
v 5.5 16 -0
v 5.5 16 -1
v 6.5 0 5
v 6.5 0 4
v 6.5 0 2
v 6.5 0 1
v 6.5 1 5
v 6.5 1 4
v 6.5 1 2
v 6.5 1 1
v 8.5 15 -0
v 8.5 15 -1
v 8.5 16 -0
v 8.5 16 -1
v 11.5 0 5
v 11.5 0 4
v 11.5 0 2
v 11.5 0 1
v 11.5 0 -3
v 11.5 1 5
v 11.5 1 4
v 11.5 1 2
v 11.5 1 1
v 11.5 1 -3
v 11.5 5 -0
v 11.5 5 -1
v 11.5 9 -0
v 11.5 9 -1
v 11.5 9 -2
v 11.5 10 1
v 11.5 10 -0
v 11.5 11 -2
v 11.5 11 -3
v 11.5 17 -2
v 11.5 17 -3
v 11.5 19 -2
v 11.5 19 -3
v 12.5 5 -0
v 12.5 5 -1
v 12.5 9 -0
v 12.5 9 -1
v 12.5 9 -2
v 12.5 10 1
v 12.5 10 -0
v 12.5 19 1
v 12.5 19 -2
v -8.5 0 5
v -8.5 2 5
v -5.5 0 5
v -5.5 2 5
v -3.5 0 5
v -3.5 2 5
v -0.5 0 5
v -0.5 2 5
v 3.5 0 5
v 3.5 1 5
v 6.5 0 5
v 6.5 1 5
v 8.5 0 5
v 8.5 1 5
v 11.5 0 5
v 11.5 1 5
v -8.5 18 4
v -8.5 20 4
v -7.5 6 4
v -7.5 11 4
v -6.5 6 4
v -6.5 11 4
v -2.5 6 4
v -2.5 11 4
v -1.5 6 4
v -1.5 11 4
v -0.5 18 4
v -0.5 20 4
v -8.5 2 3
v -8.5 6 3
v -8.5 11 3
v -8.5 18 3
v -7.5 6 3
v -7.5 11 3
v -7.5 14 3
v -7.5 15 3
v -6.5 6 3
v -6.5 11 3
v -6.5 13 3
v -6.5 14 3
v -6.5 16 3
v -6.5 17 3
v -5.5 2 3
v -5.5 16 3
v -5.5 17 3
v -3.5 2 3
v -3.5 16 3
v -3.5 17 3
v -2.5 6 3
v -2.5 11 3
v -2.5 13 3
v -2.5 14 3
v -2.5 16 3
v -2.5 17 3
v -1.5 6 3
v -1.5 11 3
v -1.5 14 3
v -1.5 15 3
v -0.5 2 3
v -0.5 6 3
v -0.5 11 3
v -0.5 18 3
v -9.5 4 2
v -9.5 11 2
v -8.5 4 2
v -8.5 6 2
v -8.5 11 2
v -7.5 14 2
v -7.5 15 2
v -6.5 13 2
v -6.5 14 2
v -6.5 16 2
v -6.5 17 2
v -5.5 16 2
v -5.5 17 2
v -4.5 14 2
v -4.5 15 2
v -3.5 14 2
v -3.5 15 2
v -3.5 16 2
v -3.5 17 2
v -2.5 13 2
v -2.5 14 2
v -2.5 16 2
v -2.5 17 2
v -1.5 14 2
v -1.5 15 2
v -0.5 4 2
v -0.5 6 2
v -0.5 11 2
v 0.5 4 2
v 0.5 11 2
v 2.5 10 1
v 2.5 19 1
v 3.5 1 1
v 3.5 10 1
v 3.5 11 1
v 3.5 17 1
v 4.5 10 1
v 4.5 11 1
v 6.5 0 1
v 6.5 1 1
v 6.5 9 1
v 6.5 10 1
v 8.5 0 1
v 8.5 1 1
v 8.5 9 1
v 8.5 10 1
v 10.5 10 1
v 10.5 11 1
v 11.5 1 1
v 11.5 10 1
v 11.5 11 1
v 11.5 17 1
v 12.5 10 1
v 12.5 19 1
v -5.5 1 -0
v -5.5 2 -0
v -3.5 1 -0
v -3.5 2 -0
v 2.5 4 -0
v 2.5 9 -0
v 2.5 10 -0
v 3.5 4 -0
v 3.5 9 -0
v 3.5 10 -0
v 3.5 11 -0
v 3.5 17 -0
v 4.5 11 -0
v 4.5 13 -0
v 4.5 14 -0
v 5.5 12 -0
v 5.5 13 -0
v 5.5 15 -0
v 5.5 16 -0
v 6.5 15 -0
v 6.5 16 -0
v 8.5 15 -0
v 8.5 16 -0
v 9.5 12 -0
v 9.5 13 -0
v 9.5 15 -0
v 9.5 16 -0
v 10.5 11 -0
v 10.5 13 -0
v 10.5 14 -0
v 11.5 5 -0
v 11.5 9 -0
v 11.5 10 -0
v 11.5 11 -0
v 11.5 17 -0
v 12.5 5 -0
v 12.5 9 -0
v 12.5 10 -0
v 4.5 13 -1
v 4.5 14 -1
v 5.5 12 -1
v 5.5 13 -1
v 5.5 15 -1
v 5.5 16 -1
v 6.5 12 -1
v 6.5 13 -1
v 6.5 15 -1
v 6.5 16 -1
v 7.5 12 -1
v 7.5 13 -1
v 8.5 15 -1
v 8.5 16 -1
v 9.5 12 -1
v 9.5 13 -1
v 9.5 15 -1
v 9.5 16 -1
v 10.5 13 -1
v 10.5 14 -1
v -5.5 0 -2
v -5.5 1 -2
v -3.5 0 -2
v -3.5 1 -2
v 2.5 4 -1
v 2.5 9 -1
v 3.5 4 -1
v 3.5 9 -1
v 11.5 5 -1
v 11.5 9 -1
v 12.5 5 -1
v 12.5 9 -1
v -9.5 4 -2
v -9.5 11 -2
v -8.5 4 -2
v -8.5 6 -2
v -8.5 11 -2
v -0.5 4 -2
v -0.5 6 -2
v -0.5 11 -2
v 0.5 4 -2
v 0.5 11 -2
v 11.5 9 -2
v 11.5 11 -2
v 11.5 17 -2
v 11.5 19 -2
v 12.5 9 -2
v 12.5 19 -2
v -8.5 0 -3
v -8.5 2 -3
v -8.5 6 -3
v -8.5 11 -3
v -8.5 18 -3
v -8.5 20 -3
v -0.5 0 -3
v -0.5 2 -3
v -0.5 6 -3
v -0.5 11 -3
v -0.5 18 -3
v -0.5 20 -3
v 2.5 9 -3
v 2.5 19 -3
v 3.5 0 -3
v 3.5 1 -3
v 3.5 9 -3
v 3.5 11 -3
v 3.5 17 -3
v 11.5 0 -3
v 11.5 1 -3
v 11.5 11 -3
v 11.5 17 -3
v 11.5 19 -3
v -8.5 0 5
v -5.5 0 5
v -3.5 0 5
v -0.5 0 5
v 3.5 0 5
v 6.5 0 5
v 8.5 0 5
v 11.5 0 5
v 3.5 0 4
v 6.5 0 4
v 8.5 0 4
v 11.5 0 4
v 3.5 0 2
v 6.5 0 2
v 8.5 0 2
v 11.5 0 2
v 3.5 0 1
v 6.5 0 1
v 8.5 0 1
v 11.5 0 1
v -5.5 0 -2
v -3.5 0 -2
v -8.5 0 -3
v -0.5 0 -3
v 3.5 0 -3
v 11.5 0 -3
v -5.5 1 -0
v -3.5 1 -0
v -5.5 1 -2
v -3.5 1 -2
v -5.5 2 3
v -3.5 2 3
v -5.5 2 -0
v -3.5 2 -0
v -9.5 4 2
v -8.5 4 2
v -0.5 4 2
v 0.5 4 2
v 2.5 4 -0
v 3.5 4 -0
v 2.5 4 -1
v 3.5 4 -1
v -9.5 4 -2
v -8.5 4 -2
v -0.5 4 -2
v 0.5 4 -2
v 11.5 5 -0
v 12.5 5 -0
v 11.5 5 -1
v 12.5 5 -1
v -7.5 6 4
v -6.5 6 4
v -2.5 6 4
v -1.5 6 4
v -7.5 6 3
v -6.5 6 3
v -2.5 6 3
v -1.5 6 3
v 2.5 9 -1
v 3.5 9 -1
v 11.5 9 -1
v 12.5 9 -1
v 11.5 9 -2
v 12.5 9 -2
v 2.5 9 -3
v 3.5 9 -3
v 2.5 10 1
v 3.5 10 1
v 11.5 10 1
v 12.5 10 1
v 2.5 10 -0
v 3.5 10 -0
v 11.5 10 -0
v 12.5 10 -0
v 4.5 14 -0
v 10.5 14 -0
v 4.5 14 -1
v 10.5 14 -1
v -7.5 15 3
v -1.5 15 3
v -7.5 15 2
v -4.5 15 2
v -3.5 15 2
v -1.5 15 2
v 5.5 16 -0
v 6.5 16 -0
v 8.5 16 -0
v 9.5 16 -0
v 5.5 16 -1
v 6.5 16 -1
v 8.5 16 -1
v 9.5 16 -1
v -6.5 17 3
v -5.5 17 3
v -3.5 17 3
v -2.5 17 3
v -6.5 17 2
v -5.5 17 2
v -3.5 17 2
v -2.5 17 2
v 3.5 17 1
v 11.5 17 1
v 3.5 17 -0
v 11.5 17 -0
v -8.5 18 4
v -0.5 18 4
v -8.5 18 3
v -0.5 18 3
v 3.5 1 5
v 6.5 1 5
v 8.5 1 5
v 11.5 1 5
v 3.5 1 4
v 6.5 1 4
v 8.5 1 4
v 11.5 1 4
v 3.5 1 2
v 6.5 1 2
v 8.5 1 2
v 11.5 1 2
v 3.5 1 1
v 6.5 1 1
v 8.5 1 1
v 11.5 1 1
v -8.5 2 5
v -5.5 2 5
v -3.5 2 5
v -0.5 2 5
v -8.5 2 3
v -5.5 2 3
v -3.5 2 3
v -0.5 2 3
v -7.5 11 4
v -6.5 11 4
v -2.5 11 4
v -1.5 11 4
v -7.5 11 3
v -6.5 11 3
v -2.5 11 3
v -1.5 11 3
v -9.5 11 2
v -8.5 11 2
v -0.5 11 2
v 0.5 11 2
v 3.5 11 1
v 4.5 11 1
v 10.5 11 1
v 11.5 11 1
v 3.5 11 -0
v 4.5 11 -0
v 10.5 11 -0
v 11.5 11 -0
v -9.5 11 -2
v -8.5 11 -2
v -0.5 11 -2
v 0.5 11 -2
v 5.5 12 -0
v 9.5 12 -0
v 5.5 12 -1
v 6.5 12 -1
v 7.5 12 -1
v 9.5 12 -1
v -6.5 13 3
v -2.5 13 3
v -6.5 13 2
v -2.5 13 2
v 4.5 13 -0
v 5.5 13 -0
v 9.5 13 -0
v 10.5 13 -0
v 4.5 13 -1
v 5.5 13 -1
v 9.5 13 -1
v 10.5 13 -1
v -7.5 14 3
v -6.5 14 3
v -2.5 14 3
v -1.5 14 3
v -7.5 14 2
v -6.5 14 2
v -2.5 14 2
v -1.5 14 2
v 5.5 15 -0
v 6.5 15 -0
v 8.5 15 -0
v 9.5 15 -0
v 5.5 15 -1
v 6.5 15 -1
v 8.5 15 -1
v 9.5 15 -1
v -6.5 16 3
v -5.5 16 3
v -3.5 16 3
v -2.5 16 3
v -6.5 16 2
v -5.5 16 2
v -3.5 16 2
v -2.5 16 2
v 2.5 19 1
v 12.5 19 1
v 11.5 19 -2
v 12.5 19 -2
v 2.5 19 -3
v 11.5 19 -3
v -8.5 20 4
v -0.5 20 4
v -8.5 20 -3
v -0.5 20 -3

# faces
f 3/7/1 2/7/1 1/7/1
f 4/7/1 2/7/1 3/7/1
f 7/3/1 6/3/1 5/3/1
f 8/3/1 6/3/1 7/3/1
f 9/3/1 6/3/1 8/3/1
f 10/4/1 9/4/1 8/4/1
f 11/4/1 9/4/1 10/4/1
f 12/4/1 10/4/1 8/4/1
f 13/4/1 10/4/1 12/4/1
f 14/4/1 9/4/1 11/4/1
f 15/4/1 9/4/1 14/4/1
f 16/7/1 13/7/1 12/7/1
f 17/7/1 13/7/1 16/7/1
f 18/7/1 15/7/1 14/7/1
f 19/7/1 15/7/1 18/7/1
f 21/6/1 17/6/1 16/6/1
f 21/6/1 18/6/1 17/6/1
f 21/6/1 19/6/1 18/6/1
f 22/6/1 19/6/1 21/6/1
f 23/5/1 21/5/1 20/5/1
f 23/5/1 22/5/1 21/5/1
f 24/5/1 22/5/1 23/5/1
f 27/4/1 26/4/1 25/4/1
f 28/4/1 26/4/1 27/4/1
f 31/6/1 30/6/1 29/6/1
f 32/6/1 30/6/1 31/6/1
f 35/3/1 34/3/1 33/3/1
f 36/3/1 34/3/1 35/3/1
f 37/3/1 35/3/1 33/3/1
f 38/3/1 35/3/1 37/3/1
f 39/3/1 35/3/1 38/3/1
f 42/4/1 41/4/1 40/4/1
f 43/4/1 41/4/1 42/4/1
f 46/6/1 45/6/1 44/6/1
f 47/6/1 45/6/1 46/6/1
f 50/6/1 49/6/1 48/6/1
f 51/6/1 49/6/1 50/6/1
f 54/6/1 53/6/1 52/6/1
f 55/6/1 53/6/1 54/6/1
f 58/6/1 57/6/1 56/6/1
f 59/6/1 57/6/1 58/6/1
f 62/3/1 59/3/1 58/3/1
f 62/3/1 60/3/1 59/3/1
f 63/3/1 62/3/1 61/3/1
f 64/3/1 60/3/1 62/3/1
f 64/3/1 62/3/1 63/3/1
f 70/2/1 66/2/1 65/2/1
f 71/10/1 67/10/1 66/10/1
f 71/2/1 66/2/1 70/2/1
f 72/2/1 68/2/1 67/2/1
f 72/10/1 67/10/1 71/10/1
f 73/10/1 69/10/1 68/10/1
f 73/2/1 68/2/1 72/2/1
f 74/10/1 69/10/1 73/10/1
f 75/1/1 74/1/1 73/1/1
f 76/1/1 74/1/1 75/1/1
f 77/1/1 75/1/1 73/1/1
f 78/1/1 74/1/1 76/1/1
f 79/1/1 74/1/1 78/1/1
f 80/1/1 77/1/1 73/1/1
f 81/1/1 77/1/1 80/1/1
f 84/6/1 83/6/1 82/6/1
f 85/6/1 83/6/1 84/6/1
f 90/2/1 87/2/1 86/2/1
f 91/10/1 88/10/1 87/10/1
f 91/2/1 87/2/1 90/2/1
f 92/2/1 89/2/1 88/2/1
f 92/10/1 88/10/1 91/10/1
f 93/2/1 89/2/1 92/2/1
f 96/6/1 95/6/1 94/6/1
f 97/6/1 95/6/1 96/6/1
f 100/6/1 99/6/1 98/6/1
f 101/6/1 99/6/1 100/6/1
f 104/6/1 103/6/1 102/6/1
f 105/6/1 103/6/1 104/6/1
f 108/3/1 107/3/1 106/3/1
f 109/3/1 107/3/1 108/3/1
f 110/6/2 111/6/2 112/6/2
f 112/6/2 111/6/2 113/6/2
f 114/4/2 115/4/2 116/4/2
f 116/4/2 115/4/2 117/4/2
f 118/6/2 119/6/2 120/6/2
f 120/6/2 119/6/2 121/6/2
f 122/6/2 123/6/2 124/6/2
f 124/6/2 123/6/2 125/6/2
f 126/3/2 127/3/2 128/3/2
f 128/3/2 127/3/2 129/3/2
f 126/3/2 128/3/2 130/3/2
f 130/3/2 128/3/2 131/3/2
f 131/3/2 128/3/2 132/3/2
f 133/6/2 134/6/2 135/6/2
f 135/6/2 134/6/2 136/6/2
f 137/4/2 138/4/2 139/4/2
f 139/4/2 138/4/2 140/4/2
f 141/3/2 142/3/2 143/3/2
f 143/3/2 142/3/2 144/3/2
f 144/3/2 142/3/2 145/3/2
f 144/4/2 145/4/2 146/4/2
f 146/4/2 145/4/2 147/4/2
f 144/4/2 146/4/2 148/4/2
f 148/4/2 146/4/2 149/4/2
f 147/4/2 145/4/2 150/4/2
f 150/4/2 145/4/2 151/4/2
f 148/7/2 149/7/2 152/7/2
f 152/7/2 149/7/2 153/7/2
f 150/7/2 151/7/2 154/7/2
f 154/7/2 151/7/2 155/7/2
f 152/6/2 153/6/2 157/6/2
f 153/6/2 154/6/2 157/6/2
f 154/6/2 155/6/2 157/6/2
f 157/6/2 155/6/2 158/6/2
f 156/5/2 157/5/2 159/5/2
f 157/5/2 158/5/2 159/5/2
f 159/5/2 158/5/2 160/5/2
f 161/7/2 162/7/2 163/7/2
f 163/7/2 162/7/2 164/7/2
f 165/3/2 166/3/2 167/3/2
f 167/3/2 166/3/2 168/3/2
f 169/6/2 170/6/2 171/6/2
f 171/6/2 170/6/2 172/6/2
f 173/6/2 174/6/2 175/6/2
f 175/6/2 174/6/2 176/6/2
f 177/6/2 178/6/2 179/6/2
f 179/6/2 178/6/2 180/6/2
f 181/2/2 182/2/2 185/2/2
f 182/10/2 183/10/2 186/10/2
f 185/2/2 182/2/2 186/2/2
f 183/2/2 184/2/2 187/2/2
f 186/10/2 183/10/2 187/10/2
f 187/2/2 184/2/2 188/2/2
f 189/6/2 190/6/2 191/6/2
f 191/6/2 190/6/2 192/6/2
f 193/2/2 194/2/2 198/2/2
f 194/10/2 195/10/2 199/10/2
f 198/2/2 194/2/2 199/2/2
f 195/2/2 196/2/2 200/2/2
f 199/10/2 195/10/2 200/10/2
f 196/10/2 197/10/2 201/10/2
f 200/2/2 196/2/2 201/2/2
f 201/10/2 197/10/2 202/10/2
f 201/1/2 202/1/2 203/1/2
f 203/1/2 202/1/2 204/1/2
f 201/1/2 203/1/2 205/1/2
f 204/1/2 202/1/2 206/1/2
f 206/1/2 202/1/2 207/1/2
f 201/1/2 205/1/2 208/1/2
f 208/1/2 205/1/2 209/1/2
f 207/1/2 202/1/2 210/1/2
f 210/1/2 202/1/2 211/1/2
f 210/6/2 211/6/2 212/6/2
f 212/6/2 211/6/2 213/6/2
f 212/3/2 213/3/2 214/3/2
f 214/3/2 213/3/2 215/3/2
f 216/6/2 217/6/2 218/6/2
f 218/6/2 217/6/2 219/6/2
f 218/3/2 219/3/2 222/3/2
f 219/3/2 220/3/2 222/3/2
f 221/3/2 222/3/2 223/3/2
f 222/3/2 220/3/2 224/3/2
f 223/3/2 222/3/2 224/3/2
f 227/3/3 226/3/3 225/3/3
f 228/3/3 226/3/3 227/3/3
f 231/3/3 230/3/3 229/3/3
f 232/3/3 230/3/3 231/3/3
f 235/2/3 234/2/3 233/2/3
f 236/2/3 234/2/3 235/2/3
f 239/2/3 238/2/3 237/2/3
f 240/2/3 238/2/3 239/2/3
f 245/4/3 244/4/3 243/4/3
f 246/4/3 244/4/3 245/4/3
f 249/4/3 248/4/3 247/4/3
f 250/4/3 248/4/3 249/4/3
f 251/5/3 242/5/3 241/5/3
f 252/5/3 242/5/3 251/5/3
f 257/4/3 254/4/3 253/4/3
f 257/7/3 255/7/3 254/7/3
f 258/6/3 256/6/3 255/6/3
f 258/7/3 255/7/3 257/7/3
f 259/6/3 256/6/3 258/6/3
f 260/6/3 256/6/3 259/6/3
f 261/4/3 257/4/3 253/4/3
f 262/6/3 259/6/3 258/6/3
f 263/6/3 259/6/3 262/6/3
f 264/6/3 259/6/3 263/6/3
f 265/6/3 256/6/3 260/6/3
f 266/6/3 256/6/3 265/6/3
f 267/4/3 261/4/3 253/4/3
f 268/6/3 265/6/3 260/6/3
f 269/6/3 256/6/3 266/6/3
f 270/4/3 261/4/3 267/4/3
f 271/6/3 268/6/3 260/6/3
f 271/6/3 269/6/3 268/6/3
f 272/6/3 256/6/3 269/6/3
f 272/6/3 269/6/3 271/6/3
f 273/4/3 261/4/3 270/4/3
f 273/7/3 262/7/3 261/7/3
f 274/6/3 263/6/3 262/6/3
f 274/7/3 262/7/3 273/7/3
f 275/6/3 263/6/3 274/6/3
f 277/6/3 271/6/3 260/6/3
f 278/6/3 256/6/3 272/6/3
f 279/4/3 273/4/3 270/4/3
f 280/6/3 276/6/3 275/6/3
f 280/6/3 275/6/3 274/6/3
f 281/6/3 276/6/3 280/6/3
f 282/6/3 277/6/3 260/6/3
f 282/6/3 278/6/3 277/6/3
f 283/4/3 279/4/3 270/4/3
f 284/7/3 280/7/3 279/7/3
f 284/4/3 279/4/3 283/4/3
f 285/6/3 281/6/3 280/6/3
f 285/7/3 280/7/3 284/7/3
f 285/6/3 282/6/3 281/6/3
f 286/6/3 278/6/3 282/6/3
f 286/6/3 282/6/3 285/6/3
f 286/6/3 256/6/3 278/6/3
f 289/7/3 288/7/3 287/7/3
f 290/7/3 288/7/3 289/7/3
f 291/7/3 288/7/3 290/7/3
f 295/10/3 293/10/3 292/10/3
f 298/8/3 297/8/3 296/8/3
f 299/8/3 297/8/3 298/8/3
f 300/10/3 293/10/3 295/10/3
f 300/10/3 295/10/3 294/10/3
f 301/10/3 293/10/3 300/10/3
f 302/10/3 300/10/3 294/10/3
f 302/9/3 301/9/3 300/9/3
f 303/9/3 301/9/3 302/9/3
f 306/10/3 303/10/3 302/10/3
f 306/10/3 302/10/3 294/10/3
f 307/10/3 303/10/3 306/10/3
f 308/8/3 305/8/3 304/8/3
f 309/8/3 305/8/3 308/8/3
f 310/10/3 303/10/3 307/10/3
f 311/10/3 303/10/3 310/10/3
f 315/7/3 313/7/3 312/7/3
f 315/7/3 314/7/3 313/7/3
f 316/7/3 314/7/3 315/7/3
f 320/3/3 318/3/3 317/3/3
f 321/3/3 318/3/3 320/3/3
f 322/3/3 318/3/3 321/3/3
f 323/1/3 320/1/3 319/1/3
f 323/1/3 321/1/3 320/1/3
f 324/1/3 321/1/3 323/1/3
f 326/1/3 323/1/3 319/1/3
f 327/1/3 323/1/3 326/1/3
f 328/6/3 324/6/3 323/6/3
f 328/1/3 323/1/3 327/1/3
f 329/10/3 326/10/3 325/10/3
f 330/1/3 327/1/3 326/1/3
f 330/10/3 326/10/3 329/10/3
f 331/6/3 328/6/3 327/6/3
f 331/1/3 327/1/3 330/1/3
f 332/6/3 324/6/3 328/6/3
f 332/6/3 328/6/3 331/6/3
f 333/1/3 331/1/3 330/1/3
f 333/6/3 324/6/3 332/6/3
f 333/1/3 332/1/3 331/1/3
f 334/6/3 324/6/3 333/6/3
f 335/1/3 333/1/3 330/1/3
f 335/1/3 334/1/3 333/1/3
f 336/1/3 334/1/3 335/1/3
f 337/1/3 334/1/3 336/1/3
f 338/3/3 318/3/3 322/3/3
f 339/3/3 337/3/3 336/3/3
f 339/3/3 338/3/3 337/3/3
f 340/3/3 318/3/3 338/3/3
f 340/3/3 338/3/3 339/3/3
f 343/3/3 342/3/3 341/3/3
f 344/3/3 342/3/3 343/3/3
f 348/6/3 346/6/3 345/6/3
f 349/3/3 347/3/3 346/3/3
f 349/6/3 346/6/3 348/6/3
f 350/3/3 347/3/3 349/3/3
f 353/6/3 352/6/3 351/6/3
f 354/6/3 352/6/3 353/6/3
f 355/6/3 352/6/3 354/6/3
f 356/6/3 354/6/3 353/6/3
f 357/6/3 354/6/3 356/6/3
f 358/6/3 352/6/3 355/6/3
f 359/6/3 352/6/3 358/6/3
f 360/6/3 358/6/3 355/6/3
f 361/6/3 352/6/3 359/6/3
f 362/6/3 360/6/3 355/6/3
f 362/6/3 361/6/3 360/6/3
f 363/6/3 352/6/3 361/6/3
f 363/6/3 361/6/3 362/6/3
f 364/6/3 356/6/3 353/6/3
f 366/6/3 362/6/3 355/6/3
f 367/6/3 352/6/3 363/6/3
f 368/6/3 365/6/3 364/6/3
f 368/6/3 364/6/3 353/6/3
f 369/6/3 365/6/3 368/6/3
f 370/6/3 367/6/3 366/6/3
f 370/6/3 366/6/3 355/6/3
f 374/6/3 369/6/3 368/6/3
f 374/6/3 370/6/3 369/6/3
f 375/6/3 352/6/3 367/6/3
f 375/6/3 370/6/3 374/6/3
f 375/6/3 367/6/3 370/6/3
f 376/6/3 372/6/3 371/6/3
f 377/3/3 373/3/3 372/3/3
f 377/6/3 372/6/3 376/6/3
f 378/3/3 373/3/3 377/3/3
f 382/10/3 380/10/3 379/10/3
f 385/10/3 382/10/3 381/10/3
f 386/10/3 380/10/3 382/10/3
f 386/10/3 382/10/3 385/10/3
f 387/3/3 384/3/3 383/3/3
f 388/3/3 384/3/3 387/3/3
f 389/9/3 386/9/3 385/9/3
f 390/10/3 380/10/3 386/10/3
f 390/9/3 386/9/3 389/9/3
f 393/10/3 390/10/3 389/10/3
f 394/10/3 380/10/3 390/10/3
f 394/10/3 390/10/3 393/10/3
f 395/3/3 392/3/3 391/3/3
f 396/3/3 392/3/3 395/3/3
f 397/10/3 380/10/3 394/10/3
f 398/10/3 380/10/3 397/10/3
f 401/3/3 400/3/3 399/3/3
f 402/3/3 400/3/3 401/3/3
f 403/6/4 404/6/4 405/6/4
f 405/6/4 404/6/4 406/6/4
f 407/6/4 408/6/4 409/6/4
f 409/6/4 408/6/4 410/6/4
f 411/7/4 412/7/4 413/7/4
f 413/7/4 412/7/4 414/7/4
f 414/7/4 412/7/4 415/7/4
f 416/7/4 417/7/4 419/7/4
f 417/7/4 418/7/4 419/7/4
f 419/7/4 418/7/4 420/7/4
f 421/3/4 422/3/4 425/3/4
f 423/3/4 424/3/4 425/3/4
f 422/3/4 423/3/4 425/3/4
f 425/3/4 424/3/4 426/3/4
f 427/3/4 428/3/4 433/3/4
f 428/4/4 429/4/4 434/4/4
f 433/3/4 428/3/4 434/3/4
f 429/7/4 430/7/4 435/7/4
f 434/4/4 429/4/4 435/4/4
f 430/6/4 431/6/4 436/6/4
f 435/7/4 430/7/4 436/7/4
f 431/5/4 432/5/4 437/5/4
f 436/6/4 431/6/4 437/6/4
f 437/5/4 432/5/4 438/5/4
f 439/3/4 440/3/4 443/3/4
f 443/3/4 440/3/4 444/3/4
f 444/3/4 440/3/4 445/3/4
f 441/10/4 442/10/4 446/10/4
f 442/1/4 443/1/4 447/1/4
f 446/10/4 442/10/4 447/10/4
f 443/1/4 444/1/4 447/1/4
f 444/6/4 445/6/4 448/6/4
f 447/1/4 444/1/4 448/1/4
f 445/3/4 440/3/4 449/3/4
f 448/6/4 445/6/4 449/6/4
f 449/3/4 440/3/4 450/3/4
f 459/2/5 456/2/5 455/2/5
f 460/2/5 456/2/5 459/2/5
f 461/2/5 458/2/5 457/2/5
f 462/2/5 458/2/5 461/2/5
f 463/10/5 460/10/5 459/10/5
f 464/10/5 460/10/5 463/10/5
f 465/10/5 462/10/5 461/10/5
f 466/10/5 462/10/5 465/10/5
f 467/2/5 464/2/5 463/2/5
f 468/2/5 464/2/5 467/2/5
f 469/2/5 466/2/5 465/2/5
f 470/2/5 466/2/5 469/2/5
f 471/3/5 452/3/5 451/3/5
f 472/3/5 454/3/5 453/3/5
f 473/3/5 471/3/5 451/3/5
f 473/3/5 472/3/5 471/3/5
f 474/3/5 454/3/5 472/3/5
f 474/3/5 472/3/5 473/3/5
f 475/10/5 468/10/5 467/10/5
f 475/10/5 469/10/5 468/10/5
f 475/10/5 470/10/5 469/10/5
f 476/10/5 470/10/5 475/10/5
f 479/3/5 478/3/5 477/3/5
f 480/3/5 478/3/5 479/3/5
f 483/4/5 482/4/5 481/4/5
f 484/4/5 482/4/5 483/4/5
f 491/6/5 490/6/5 489/6/5
f 492/6/5 490/6/5 491/6/5
f 493/7/5 486/7/5 485/7/5
f 494/7/5 486/7/5 493/7/5
f 495/7/5 488/7/5 487/7/5
f 496/7/5 488/7/5 495/7/5
f 499/6/5 498/6/5 497/6/5
f 500/6/5 498/6/5 499/6/5
f 505/4/5 502/4/5 501/4/5
f 506/4/5 502/4/5 505/4/5
f 507/4/5 504/4/5 503/4/5
f 508/4/5 504/4/5 507/4/5
f 513/3/5 512/3/5 511/3/5
f 514/3/5 512/3/5 513/3/5
f 515/3/5 510/3/5 509/3/5
f 516/3/5 510/3/5 515/3/5
f 521/3/5 518/3/5 517/3/5
f 522/3/5 518/3/5 521/3/5
f 523/3/5 520/3/5 519/3/5
f 524/3/5 520/3/5 523/3/5
f 527/6/5 526/6/5 525/6/5
f 528/6/5 526/6/5 527/6/5
f 531/6/5 530/6/5 529/6/5
f 532/6/5 530/6/5 531/6/5
f 533/6/5 530/6/5 532/6/5
f 534/6/5 530/6/5 533/6/5
f 539/6/5 536/6/5 535/6/5
f 540/6/5 536/6/5 539/6/5
f 541/6/5 538/6/5 537/6/5
f 542/6/5 538/6/5 541/6/5
f 547/6/5 544/6/5 543/6/5
f 548/6/5 544/6/5 547/6/5
f 549/6/5 546/6/5 545/6/5
f 550/6/5 546/6/5 549/6/5
f 553/3/5 552/3/5 551/3/5
f 554/3/5 552/3/5 553/3/5
f 557/5/5 556/5/5 555/5/5
f 558/5/5 556/5/5 557/5/5
f 559/2/6 560/2/6 563/2/6
f 563/2/6 560/2/6 564/2/6
f 561/2/6 562/2/6 565/2/6
f 565/2/6 562/2/6 566/2/6
f 563/10/6 564/10/6 567/10/6
f 567/10/6 564/10/6 568/10/6
f 565/10/6 566/10/6 569/10/6
f 569/10/6 566/10/6 570/10/6
f 567/2/6 568/2/6 571/2/6
f 571/2/6 568/2/6 572/2/6
f 569/2/6 570/2/6 573/2/6
f 573/2/6 570/2/6 574/2/6
f 575/3/6 576/3/6 579/3/6
f 579/3/6 576/3/6 580/3/6
f 577/3/6 578/3/6 581/3/6
f 581/3/6 578/3/6 582/3/6
f 583/4/6 584/4/6 587/4/6
f 587/4/6 584/4/6 588/4/6
f 585/4/6 586/4/6 589/4/6
f 589/4/6 586/4/6 590/4/6
f 595/1/6 596/1/6 599/1/6
f 596/6/6 597/6/6 600/6/6
f 599/1/6 596/1/6 600/1/6
f 597/1/6 598/1/6 601/1/6
f 600/6/6 597/6/6 601/6/6
f 601/1/6 598/1/6 602/1/6
f 591/7/6 592/7/6 603/7/6
f 603/7/6 592/7/6 604/7/6
f 593/7/6 594/7/6 605/7/6
f 605/7/6 594/7/6 606/7/6
f 607/6/6 608/6/6 609/6/6
f 609/6/6 608/6/6 610/6/6
f 610/6/6 608/6/6 611/6/6
f 611/6/6 608/6/6 612/6/6
f 613/6/6 614/6/6 615/6/6
f 615/6/6 614/6/6 616/6/6
f 617/6/6 618/6/6 621/6/6
f 621/6/6 618/6/6 622/6/6
f 619/6/6 620/6/6 623/6/6
f 623/6/6 620/6/6 624/6/6
f 625/6/6 626/6/6 629/6/6
f 629/6/6 626/6/6 630/6/6
f 627/6/6 628/6/6 631/6/6
f 631/6/6 628/6/6 632/6/6
f 633/6/6 634/6/6 637/6/6
f 637/6/6 634/6/6 638/6/6
f 635/6/6 636/6/6 639/6/6
f 639/6/6 636/6/6 640/6/6
f 641/6/6 642/6/6 645/6/6
f 645/6/6 642/6/6 646/6/6
f 643/6/6 644/6/6 647/6/6
f 647/6/6 644/6/6 648/6/6
f 649/3/6 650/3/6 651/3/6
f 651/3/6 650/3/6 652/3/6
f 649/3/6 651/3/6 653/3/6
f 653/3/6 651/3/6 654/3/6
f 655/5/6 656/5/6 657/5/6
f 657/5/6 656/5/6 658/5/6
